<?xml version="1.0" encoding="utf-8"?>
<!-- Generator: Adobe Illustrator 26.0.3, SVG Export Plug-In . SVG Version: 6.00 Build 0)  -->
<svg version="1.1" id="Layer_1" xmlns="http://www.w3.org/2000/svg" xmlns:xlink="http://www.w3.org/1999/xlink" x="0px" y="0px"
	 viewBox="0 0 256 256" style="enable-background:new 0 0 256 256;" xml:space="preserve">
<style type="text/css">
	.st0{opacity:0.5;}
	.st1{stroke:#000000;stroke-width:19.2;stroke-miterlimit:10;}
	.st2{display:none;fill:none;stroke:#FF0000;stroke-miterlimit:10;}
	.st3{fill:none;}
</style>
<g class="st0">
	<path d="M93.8,63.2C91.7,50.6,80.8,41,67.6,41C52.9,41,41,52.9,41,67.6c0,14.7,11.9,26.6,26.6,26.6c13.2,0,24.1-9.6,26.2-22.2h41.4
		c3.5-1.6,7.1-3.1,10.7-4.4c5-1.8,10.1-3.2,15.4-4.4H93.8z M78.9,71.9c-1.7,4.5-6.1,7.7-11.3,7.7c-6.7,0-12.1-5.4-12.1-12.1
		c0-6.7,5.4-12.1,12.1-12.1c5.1,0,9.5,3.2,11.3,7.7c0.5,1.3,0.8,2.8,0.8,4.4C79.7,69.1,79.4,70.6,78.9,71.9z"/>
</g>
<path class="st1" d="M208,48"/>
<g>
	<path d="M161.8,41v22.1c-0.2,0-0.4,0.1-0.5,0.1c-5.2,1.1-10.4,2.6-15.4,4.4c-3.7,1.3-7.2,2.7-10.7,4.4
		c-36.3,16.7-63.6,49.9-72.1,89.9H41V215h53.2v-53.2H78c9.9-41.3,42.5-73.9,83.9-83.9v16.2H215V41H161.8z M79.7,176.3v24.2H55.5
		v-24.2H79.7z M200.5,79.7h-24.2V55.5h24.2V79.7z"/>
</g>
<circle class="st2" cx="128" cy="128" r="128"/>
<rect class="st3" width="256" height="256"/>
</svg>
